<svg width="138" height="136" viewBox="0 0 138 136" fill="none" xmlns="http://www.w3.org/2000/svg">
<g clip-path="url(#clip0_1_2)">
<rect x="53.318" y="30.1063" width="57.3066" height="102.193" transform="rotate(-17.1527 53.318 30.1063)" fill="#F2AA3E"/>
<rect x="48.1651" y="34.0361" width="57.3066" height="102.193" transform="rotate(-10.0795 48.1651 34.0361)" fill="#C8B79F"/>
<rect x="41.8334" y="22.0918" width="57.3066" height="102.193" transform="rotate(13.6179 41.8334 22.0918)" fill="#D9C6AB"/>
<rect x="37.9406" y="13.2055" width="57.3066" height="102.193" transform="rotate(21.7936 37.9406 13.2055)" fill="#F2AA3E"/>
<circle cx="59" cy="31" r="4" fill="#D9D9D9"/>
<path d="M95.0573 17.9322C94.2243 15.316 92.8616 12.8994 91.0541 10.8328C89.2465 8.76623 87.0328 7.09394 84.5509 5.9201C82.0689 4.74626 79.3718 4.09601 76.6276 4.00985C73.8834 3.92369 71.1509 4.40346 68.6002 5.41929C66.0495 6.43512 63.7352 7.96524 61.8016 9.91436C59.868 11.8635 58.3563 14.1899 57.3609 16.7486C56.3654 19.3073 55.9075 22.0436 56.0155 24.787C56.1235 27.5304 56.7953 30.2222 57.9889 32.6948L61.9547 30.7803C61.024 28.8522 60.5001 26.7531 60.4159 24.6137C60.3316 22.4744 60.6888 20.3406 61.465 18.3453C62.2413 16.35 63.4201 14.5358 64.9279 13.0159C66.4358 11.4959 68.2405 10.3027 70.2296 9.51059C72.2186 8.71843 74.3495 8.3443 76.4894 8.41149C78.6294 8.47868 80.7326 8.98575 82.668 9.90112C84.6035 10.8165 86.3298 12.1206 87.7393 13.7321C89.1489 15.3436 90.2115 17.2281 90.8611 19.2682L95.0573 17.9322Z" fill="#B4B4B4"/>
</g>
<defs>
<clipPath id="clip0_1_2">
<rect width="138" height="136" fill="white"/>
</clipPath>
</defs>
</svg>
